<?xml version="1.0" encoding="UTF-8" standalone="no"?>
<!DOCTYPE svg PUBLIC "-//W3C//DTD SVG 1.1//EN" "http://www.w3.org/Graphics/SVG/1.1/DTD/svg11.dtd">
<svg width="100%" height="100%" viewBox="0 0 241 149" version="1.1" xmlns="http://www.w3.org/2000/svg" xmlns:xlink="http://www.w3.org/1999/xlink" xml:space="preserve" xmlns:serif="http://www.serif.com/" style="fill-rule:evenodd;clip-rule:evenodd;stroke-linejoin:round;stroke-miterlimit:2;">
    <g transform="matrix(1,0,0,1,-2201,-11)">
        <g transform="matrix(1,0,0,1,47.2608,11)">
            <rect x="2153.74" y="0" width="240.739" height="148.145" style="fill:none;"/>
            <g transform="matrix(0.236803,0,0,0.236803,1.81499,597.217)">
                <path d="M9588.14,-2330.76C9590.32,-2335.8 9592.63,-2340.78 9595.05,-2345.71C9622.95,-2402.76 9661.67,-2446.38 9711.16,-2476.63C9760.65,-2506.87 9814.55,-2522 9872.84,-2522C9938.53,-2522 9991.65,-2504.3 10032.2,-2469.1C10068.4,-2437.75 10091.3,-2396.3 10101,-2344.73C10103.4,-2331.96 10094.5,-2319.84 10081.5,-2318.59L9998.37,-2310.53C9987.63,-2309.49 9977.7,-2316.41 9974.99,-2326.84C9968.18,-2353.06 9957.24,-2372.63 9941.98,-2385.45C9924.08,-2400.48 9900.19,-2407.88 9870.4,-2407.88C9837.34,-2407.88 9806.47,-2397.8 9777.78,-2377.7C9748.92,-2357.49 9725.94,-2325.86 9708.65,-2282.92C9691.23,-2239.63 9682.51,-2196.41 9682.51,-2153.25C9682.51,-2106.71 9693.51,-2070.71 9715.85,-2045.32C9737.94,-2020.23 9765.44,-2007.67 9798.37,-2007.67C9829.18,-2007.67 9857.42,-2017.7 9883.1,-2037.72C9905.93,-2055.52 9923.58,-2080.9 9936.17,-2113.81C9939.89,-2123.54 9949.77,-2129.46 9960.06,-2127.9C9960.06,-2127.9 10047.1,-2114.72 10047.1,-2114.72C10061.4,-2112.57 10069.7,-2097.56 10064.1,-2084.28C10039.9,-2026.9 10006,-1982.26 9962.38,-1950.3C9913.39,-1914.39 9856.01,-1896.4 9790.24,-1896.4C9735.6,-1896.4 9689.77,-1908.58 9652.73,-1932.85C9654.71,-1919.59 9644.43,-1907.62 9630.97,-1907.62C9630.97,-1907.62 9550.9,-1907.62 9550.9,-1907.62C9540.02,-1907.62 9530.77,-1915.57 9529.15,-1926.33L9513.8,-2027.84C9512.79,-2034.52 9507.04,-2039.46 9500.28,-2039.46L9289.82,-2039.46C9284.81,-2039.46 9280.21,-2036.72 9277.82,-2032.31L9216.33,-1919.12C9212.48,-1912.03 9205.06,-1907.62 9197,-1907.62C9197,-1907.62 9112.03,-1907.62 9112.03,-1907.62C9095.19,-1907.62 9084.59,-1925.79 9092.88,-1940.45C9092.88,-1940.45 9410.03,-2501.3 9410.03,-2501.3C9413.94,-2508.21 9421.26,-2512.47 9429.19,-2512.47C9429.19,-2512.47 9539.92,-2512.47 9539.92,-2512.47C9550.71,-2512.47 9559.91,-2504.64 9561.64,-2494L9588.14,-2330.76ZM10079.9,-2335.18L10079.9,-2335.18C10083.1,-2335.49 10085.2,-2338.51 10084.7,-2341.65C10075.7,-2389.24 10054.7,-2427.58 10021.3,-2456.51C9983.54,-2489.27 9933.98,-2505.33 9872.84,-2505.33C9817.68,-2505.33 9766.68,-2491.03 9719.85,-2462.41C9673,-2433.77 9636.43,-2392.4 9610.02,-2338.39C9603.6,-2325.26 9597.95,-2311.8 9593.11,-2298.02L9592.95,-2297.58L9592.5,-2296.4L9587.44,-2280.38C9575.75,-2241.95 9569.99,-2201.04 9569.99,-2157.72C9569.99,-2078.03 9589.02,-2017.03 9628.19,-1975.1L9643.51,-1960.47L9647.59,-1957.38L9647.92,-1957.12L9647.91,-1957.12C9684.55,-1927.52 9732.09,-1913.06 9790.24,-1913.06C9852.23,-1913.06 9906.35,-1929.89 9952.52,-1963.74C9993.82,-1994.02 10025.8,-2036.4 10048.7,-2090.75C10050.1,-2094 10048.1,-2097.72 10044.6,-2098.24L9957.57,-2111.42C9955.03,-2111.8 9952.65,-2110.26 9951.74,-2107.86C9937.93,-2071.78 9918.37,-2044.09 9893.34,-2024.58C9864.57,-2002.14 9832.9,-1991.01 9798.37,-1991.01C9760.46,-1991.01 9728.77,-2005.42 9703.34,-2034.31C9678.67,-2062.33 9665.84,-2101.87 9665.84,-2153.25C9665.84,-2198.48 9674.93,-2243.78 9693.19,-2289.14C9711.87,-2335.55 9737.03,-2369.51 9768.22,-2391.36C9799.86,-2413.51 9833.93,-2424.54 9870.4,-2424.54C9904.71,-2424.54 9932.07,-2415.53 9952.7,-2398.21C9970.26,-2383.46 9983.28,-2361.2 9991.12,-2331.04C9991.77,-2328.53 9994.17,-2326.87 9996.76,-2327.12L10079.9,-2335.18L10079.9,-2335.18ZM9576.21,-2300.22L9545.18,-2491.33C9544.77,-2493.91 9542.54,-2495.81 9539.92,-2495.81C9539.92,-2495.81 9429.19,-2495.81 9429.19,-2495.81C9427.26,-2495.81 9425.49,-2494.78 9424.54,-2493.1L9107.39,-1932.24C9105.38,-1928.69 9107.95,-1924.29 9112.03,-1924.29L9197,-1924.29C9198.95,-1924.29 9200.75,-1925.36 9201.68,-1927.08L9263.17,-2040.27C9268.48,-2050.04 9278.7,-2056.12 9289.82,-2056.12L9500.28,-2056.12C9515.29,-2056.12 9528.04,-2045.15 9530.27,-2030.33L9545.62,-1928.82C9546.02,-1926.22 9548.26,-1924.29 9550.9,-1924.29L9630.97,-1924.29C9634.26,-1924.29 9636.76,-1927.23 9636.24,-1930.47L9633.54,-1947.12C9627.42,-1952.21 9621.61,-1957.73 9616.09,-1963.63C9574.37,-2008.25 9553.32,-2072.9 9553.32,-2157.72C9553.32,-2208.42 9560.95,-2255.92 9576.21,-2300.22ZM9510.01,-2165.07C9512.64,-2146.78 9498.45,-2130.41 9479.98,-2130.41L9353.44,-2130.41C9329.86,-2130.41 9315.29,-2156.13 9327.43,-2176.35C9327.43,-2176.35 9429.47,-2346.42 9429.47,-2346.42C9444.15,-2370.89 9481.43,-2363.39 9485.5,-2335.14L9510.01,-2165.07L9510.01,-2165.07ZM9493.51,-2162.69C9493.51,-2162.69 9493.51,-2162.69 9493.51,-2162.69C9494.7,-2154.45 9488.3,-2147.07 9479.98,-2147.07L9353.44,-2147.07C9342.81,-2147.07 9336.25,-2158.66 9341.72,-2167.78C9341.72,-2167.78 9443.76,-2337.85 9443.76,-2337.85C9450.38,-2348.87 9467.17,-2345.49 9469.01,-2332.76C9469.01,-2332.76 9493.51,-2162.69 9493.51,-2162.69Z"/>
            </g>
        </g>
    </g>
</svg>
