<?xml version="1.0" encoding="UTF-8" standalone="no"?>
<!DOCTYPE svg PUBLIC "-//W3C//DTD SVG 1.1//EN" "http://www.w3.org/Graphics/SVG/1.1/DTD/svg11.dtd">
<svg width="100%" height="100%" viewBox="0 0 241 149" version="1.1" xmlns="http://www.w3.org/2000/svg" xmlns:xlink="http://www.w3.org/1999/xlink" xml:space="preserve" xmlns:serif="http://www.serif.com/" style="fill-rule:evenodd;clip-rule:evenodd;stroke-linejoin:round;stroke-miterlimit:2;">
    <g transform="matrix(1,0,0,1,-2831,-11)">
        <g transform="matrix(1,0,0,1,24.2608,11)">
            <rect x="2806.74" y="0" width="240.739" height="148.145" style="fill:none;"/>
            <g transform="matrix(1,0,0,1,790.371,-317)">
                <path d="M2134.94,362.286C2135.46,361.094 2136.01,359.914 2136.58,358.745C2143.19,345.236 2152.36,334.907 2164.08,327.744C2175.8,320.582 2188.56,317 2202.36,317C2217.92,317 2230.5,321.192 2240.11,329.526C2248.66,336.951 2254.1,346.767 2256.4,358.979C2256.97,362.003 2254.85,364.871 2251.78,365.168L2232.09,367.076C2229.55,367.322 2227.19,365.685 2226.55,363.214C2224.94,357.005 2222.35,352.371 2218.74,349.335C2214.49,345.776 2208.84,344.025 2201.78,344.025C2193.95,344.025 2186.64,346.412 2179.85,351.17C2173.02,355.955 2167.57,363.448 2163.48,373.615C2159.36,383.866 2157.29,394.101 2157.29,404.322C2157.29,415.342 2159.9,423.868 2165.19,429.878C2170.42,435.82 2176.93,438.794 2184.73,438.794C2192.02,438.794 2198.71,436.419 2204.79,431.679C2210.2,427.465 2214.38,421.453 2217.36,413.66C2218.24,411.356 2220.58,409.955 2223.02,410.324C2223.02,410.324 2243.63,413.444 2243.63,413.444C2247.01,413.954 2248.97,417.509 2247.64,420.653C2241.92,434.24 2233.89,444.812 2223.57,452.38C2211.96,460.885 2198.38,465.145 2182.8,465.145C2169.86,465.145 2159.01,462.261 2150.24,456.512C2150.71,459.653 2148.27,462.486 2145.09,462.486C2145.09,462.486 2126.13,462.486 2126.13,462.486C2123.55,462.486 2121.36,460.605 2120.97,458.057L2117.34,434.019C2117.1,432.437 2115.74,431.268 2114.14,431.268L2064.3,431.268C2063.12,431.268 2062.03,431.917 2061.46,432.959L2046.9,459.763C2045.99,461.442 2044.23,462.486 2042.32,462.486C2042.32,462.486 2022.2,462.486 2022.2,462.486C2018.21,462.486 2015.7,458.185 2017.67,454.713C2017.67,454.713 2092.77,321.901 2092.77,321.901C2093.69,320.267 2095.43,319.256 2097.3,319.256C2097.3,319.256 2123.53,319.256 2123.53,319.256C2126.08,319.256 2128.26,321.11 2128.67,323.631L2134.94,362.286ZM2251.4,361.24L2251.4,361.24C2252.16,361.167 2252.66,360.45 2252.52,359.708C2250.4,348.438 2245.42,339.36 2237.52,332.508C2228.58,324.751 2216.84,320.947 2202.36,320.947C2189.3,320.947 2177.22,324.335 2166.13,331.111C2155.04,337.892 2146.38,347.69 2140.13,360.479C2138.61,363.589 2137.27,366.775 2136.12,370.039L2135.98,370.423L2134.78,374.217C2132.01,383.318 2130.65,393.004 2130.65,403.262C2130.65,422.134 2135.15,436.578 2144.43,446.508L2148.06,449.972L2149.02,450.703L2149.1,450.765C2157.78,457.775 2169.03,461.198 2182.8,461.198C2197.48,461.198 2210.3,457.213 2221.23,449.197C2231.01,442.028 2238.59,431.99 2244.01,419.121C2244.33,418.351 2243.87,417.471 2243.04,417.347L2222.43,414.227C2221.83,414.136 2221.26,414.502 2221.05,415.07C2217.78,423.614 2213.14,430.171 2207.22,434.792C2200.41,440.103 2192.9,442.74 2184.73,442.74C2175.75,442.74 2168.25,439.327 2162.22,432.486C2156.38,425.85 2153.35,416.488 2153.35,404.322C2153.35,393.611 2155.5,382.884 2159.82,372.141C2164.24,361.152 2170.2,353.109 2177.59,347.937C2185.08,342.69 2193.15,340.078 2201.78,340.078C2209.91,340.078 2216.39,342.213 2221.27,346.313C2225.43,349.806 2228.52,355.078 2230.37,362.22C2230.53,362.816 2231.1,363.207 2231.71,363.148L2251.4,361.24ZM2132.12,369.517L2124.77,324.263C2124.67,323.652 2124.15,323.203 2123.53,323.203C2123.53,323.203 2097.3,323.203 2097.3,323.203C2096.85,323.203 2096.43,323.447 2096.2,323.843L2021.1,456.656C2020.62,457.497 2021.23,458.54 2022.2,458.54L2042.32,458.54C2042.78,458.54 2043.21,458.287 2043.43,457.88L2057.99,431.076C2059.25,428.761 2061.67,427.321 2064.3,427.321L2114.14,427.321C2117.69,427.321 2120.71,429.918 2121.24,433.429L2124.88,457.466C2124.97,458.084 2125.5,458.54 2126.13,458.54L2145.09,458.54C2145.87,458.54 2146.46,457.843 2146.34,457.075L2145.7,453.133C2144.25,451.928 2142.87,450.621 2141.56,449.223C2131.68,438.658 2126.7,423.348 2126.7,403.262C2126.7,391.258 2128.51,380.009 2132.12,369.517ZM2116.44,401.523C2117.07,405.853 2113.71,409.731 2109.33,409.731L2079.37,409.731C2073.78,409.731 2070.33,403.639 2073.21,398.851C2073.21,398.851 2097.37,358.578 2097.37,358.578C2100.85,352.783 2109.68,354.56 2110.64,361.249L2116.44,401.523ZM2112.54,402.085C2112.54,402.085 2112.54,402.085 2112.54,402.086C2112.82,404.036 2111.3,405.784 2109.33,405.784L2079.37,405.784C2076.85,405.784 2075.3,403.039 2076.59,400.882C2076.59,400.882 2100.76,360.608 2100.76,360.608C2102.32,357.997 2106.3,358.798 2106.73,361.812C2106.73,361.812 2112.54,402.085 2112.54,402.085Z"/>
                <path d="M2251.4,361.24L2251.4,361.24C2252.16,361.167 2252.66,360.45 2252.52,359.708C2250.4,348.438 2245.42,339.36 2237.52,332.508C2228.58,324.751 2216.84,320.947 2202.36,320.947C2189.3,320.947 2177.22,324.335 2166.13,331.111C2155.04,337.892 2146.38,347.69 2140.13,360.479C2138.61,363.589 2137.27,366.775 2136.12,370.039L2135.98,370.423L2134.78,374.217C2132.01,383.318 2130.65,393.004 2130.65,403.262C2130.65,422.134 2135.15,436.578 2144.43,446.508L2148.06,449.972L2149.02,450.703L2149.1,450.765C2157.78,457.775 2169.03,461.198 2182.8,461.198C2197.48,461.198 2210.3,457.213 2221.23,449.197C2231.01,442.028 2238.59,431.99 2244.01,419.121C2244.33,418.351 2243.87,417.471 2243.04,417.347L2222.43,414.227C2221.83,414.136 2221.26,414.502 2221.05,415.07C2217.78,423.614 2213.14,430.171 2207.22,434.792C2200.41,440.103 2192.9,442.74 2184.73,442.74C2175.75,442.74 2168.25,439.327 2162.22,432.486C2156.38,425.85 2153.35,416.488 2153.35,404.322C2153.35,393.611 2155.5,382.884 2159.82,372.141C2164.24,361.152 2170.2,353.109 2177.59,347.937C2185.08,342.69 2193.15,340.078 2201.78,340.078C2209.91,340.078 2216.39,342.213 2221.27,346.313C2225.43,349.806 2228.52,355.078 2230.37,362.22C2230.53,362.816 2231.1,363.207 2231.71,363.148L2251.4,361.24ZM2132.12,369.517L2124.77,324.263C2124.67,323.652 2124.15,323.203 2123.53,323.203C2123.53,323.203 2097.3,323.203 2097.3,323.203C2096.85,323.203 2096.43,323.447 2096.2,323.843L2021.1,456.656C2020.62,457.497 2021.23,458.54 2022.2,458.54L2042.32,458.54C2042.78,458.54 2043.21,458.287 2043.43,457.88L2057.99,431.076C2059.25,428.761 2061.67,427.321 2064.3,427.321L2114.14,427.321C2117.69,427.321 2120.71,429.918 2121.24,433.429L2124.88,457.466C2124.97,458.084 2125.5,458.54 2126.13,458.54L2145.09,458.54C2145.87,458.54 2146.46,457.843 2146.34,457.075L2145.7,453.133C2144.25,451.928 2142.87,450.621 2141.56,449.223C2131.68,438.658 2126.7,423.348 2126.7,403.262C2126.7,391.258 2128.51,380.009 2132.12,369.517ZM2116.44,401.523C2117.07,405.853 2113.71,409.731 2109.33,409.731L2079.37,409.731C2073.78,409.731 2070.33,403.639 2073.21,398.851C2073.21,398.851 2097.37,358.578 2097.37,358.578C2100.85,352.783 2109.68,354.56 2110.64,361.249L2116.44,401.523Z" style="fill:white;"/>
            </g>
        </g>
    </g>
</svg>
